<svg xmlns="http://www.w3.org/2000/svg" fill="none" viewBox="0 0 128 128">
    <path stroke="#000" stroke-linecap="round" stroke-width="5" d="M71 68v1m0-1-9-1m9 1h0m0 0s0 0 0 0m0 0v1m15 25c13 0 19-4 19-13l1-2-1-7c-2-2-9-2-14-2h-5l-7-1h0l-7-1m14 26c-7 0-8-5-11-8m11 8c-8 0-9-6-11-9M62 67s0 0 0 0m0 0s0 0 0 0m0 0-1 10-2 9-3 4c-2 3-5 5-2 6 3 0 8 3 8 6m0-35h0m13 19v-1m0 1c0 10-7 15-13 16m-28 16c-5 4 14 7 19 8l9 3c12 3 13-2 16-5 5-13 7-9 8-11m-52 5s-2-1 0-4c4-5 9-12 10-11m-10 15c0-1-6-2-9-5l-5-7c-6-9-2-13 0-15v-1l2-4 3-9h-3c-8 0-10-1-16-4l-4-3 1-3 3-4 3-1c2-2-3-6-5-8H3c-3-3-2-5-1-8 1-2 2-4 1-7 0-6 7-3 10 0s9-14 11-17c4-6 11-10 17-12 4-1 17-7 18 0 6-2 13-12 20-7 12 3 22 10 21 19 6-1 10 2 13 8 2 4-4 14-2 14l6 1c6 2 12 4 12 9l-4 15c-1 1 0 1 1 2l3 2c0 3-2 12-6 9-2-3-4 0-7 3l-3 4c0 3-3 2-5 1-3 0-6-1-8 1l-4 9c-1 4-7 10-10 13m0 0c-2 2 1-2 0 0Zm0 0c-5 0-14 11-29 3-14-7-13-11-13-13m42 10c-4-2-38-12-42-10m27-34c0 6 0 12 4 16m-13 17v1h-4m4-1-4 1m4-1-4 1m0 0c-2 1-3 0 0 0Zm4-36H41c-3 0-20 1-17 5l3 4 8 10c7 4 10 4 19-1l3-4a29 29 0 0 0 5-14Zm0 0 9 1m1 0h-1m1 0h-1" />
    <style>
        path { fill: none; }
        @media (prefers-color-scheme: dark) {
            path { fill: #FFF; }
        }
    </style>
</svg>
