<svg xmlns="http://www.w3.org/2000/svg" fill="none" viewBox="0 0 128 128">
    <path stroke="#000" stroke-linecap="round" stroke-width="3" d="M69 65s0 0 0 0m0 0-8-1m8 1h0m0 0s0 0 0 0m0 0h0m14 24c13 1 19-3 19-12v-9c-2-2-9-2-14-2h-5l-6-1h0-7m13 24c-6 0-7-5-10-7m10 7c-7 0-8-5-11-8M61 64s0 0 0 0m0 0s0 0 0 0m0 0-2 9-1 9-3 4c-3 2-5 5-3 5 4 1 8 3 8 6m1-33h0m12 18-1-1m1 1c0 9-7 14-13 15m-28 16c-4 3 14 6 19 7l10 3c11 3 11-2 14-5 5-12 8-8 8-10m-51 5c1 0-1-2 1-5l9-10m-10 15-7-5-5-7c-6-9-2-12-1-14l1-1 2-4 3-9h-4c-7 0-10-1-15-3-4-2-4-3-4-4l1-3c0-2 2-3 3-3l3-2c2-1-3-5-5-7H3c-3-3-2-5-1-8 1-2 2-4 1-7-1-5 7-2 9 0 3 4 9-13 12-16 3-5 10-10 16-11 4-1 16-7 18 0 5-2 12-11 19-7 11 3 21 10 20 18 6 0 10 2 12 8 2 4-4 13-1 13l5 1c6 2 12 5 12 9l-4 15 1 1c1 1 3 1 3 3s-2 11-5 7c-3-2-5 1-7 4l-4 3c0 3-2 3-5 2-2-1-5-1-7 1l-4 8c-1 4-7 10-10 13m0 0c-1 1 1-2 0 0Zm0 0c-4 0-13 10-28 2-13-6-12-10-13-12m41 10c-3-2-37-12-41-10m27-33c0 6 0 12 3 16M60 97l1 1h-4m3-1-3 1m3-1-3 1m0 0c-3 1-4 0 0 0Zm4-34-21-1c-3 0-19 1-16 5l2 4 8 10c7 4 9 4 18-1l3-4a27 27 0 0 0 6-13Zm0 0 8 1m1 0h-1m1 0h-1" />
    <style>
        path { fill: none; }
        @media (prefers-color-scheme: dark) {
            path { fill: #FFF; }
        }
    </style>
</svg>
