<svg width="212" height="259" viewBox="0 0 212 259" fill="none" xmlns="http://www.w3.org/2000/svg">
<path d="M173.716 114.954C185.84 113.852 204.324 114.931 209.261 100.28C213.141 88.7653 198.844 73.939 190.184 68.9201C185.057 65.9485 179.471 64.8551 173.608 65.1157C172.413 65.1688 168.557 66.4342 167.52 65.6048C165.305 63.8321 163.748 56.8133 162.357 54.3545C159.529 49.3552 156.534 43.2056 152.194 39.2997C146.6 34.2652 130.78 34.4142 130.78 44.5172C130.78 51.5535 149.501 63.0253 152.955 53.4305C156.334 44.0433 149.55 11.7617 134.422 15.7664C130.557 16.7894 123.198 18.0608 121.432 22.234C117.987 30.3773 121.577 38.307 126.541 44.8433C131.93 51.9392 134.862 45.6108 135.346 38.7562C136.282 25.4755 133.488 9.05947 119.421 3.70086C110.293 0.223325 100.044 2.43269 91.7574 7.12488C83.6505 11.7155 83.7137 19.4671 83.7137 27.832C83.7137 33.7691 82.2675 41.7129 84.2572 47.3978C86.6698 54.2911 99.1321 55.6018 105.019 56.0393C106.678 56.1627 119.131 57.9222 120.454 55.8219C122.089 53.2241 120.764 46.6451 120.454 43.9738C119.484 35.635 116.239 27.9375 113.117 20.2231C112.506 18.7139 107.773 3.41426 104.149 6.63573C99.8386 10.4672 92.6128 18.2749 91.3226 23.9732C89.4911 32.0622 86.3431 35.8286 80.6157 41.365C77.5903 44.2896 71.6026 49.6968 70.1263 53.7566C68.4534 58.3572 59.4327 52.0879 56.9738 49.4087C52.9509 45.0256 49.8829 36.3914 47.7344 30.8212C46.493 27.6029 45.3 22.2946 48.2235 19.6252C58.9501 9.83142 79.5644 14.8826 92.3009 13.9729C102.241 13.2629 110.961 8.77347 120.889 11.2554" stroke="#101828" stroke-width="3" stroke-linecap="round"/>
<path d="M134.583 138.435C134.583 143.79 138.888 143.152 143.387 141.152C144.466 140.673 146.245 140.034 147.083 139.196C149.435 136.844 142.799 141.321 142.083 141.75C139.067 143.56 137.131 143.81 134.202 140.881C130.288 136.967 135.837 135.5 138.496 135.5" stroke="#101828" stroke-width="3" stroke-linecap="round"/>
<path d="M92.5152 142.353C94.5671 142.353 98.2762 142.646 98.2762 139.526C98.2762 139.372 94.2514 140.916 93.4935 141.863C92.3572 143.284 100.555 141.539 98.9284 142.353C96.7725 143.43 90.5586 146.291 90.5586 142.353" stroke="#101828" stroke-width="3" stroke-linecap="round"/>
<path d="M114.013 140.541C114.013 149.264 113.635 155.181 107.769 161.78C105.553 164.273 103.13 165.398 102.459 168.417C101.853 171.143 100.738 173.188 100.738 176.136C100.738 180.497 101.08 180.538 104.966 178.594C108.465 176.845 109.169 183.824 110.915 185.183C115.609 188.833 121.828 174.96 122.863 184.789C123.094 186.991 128.711 184.858 129.746 183.708C131.323 181.955 129.942 174.006 129.942 171.564C129.942 169.162 130.827 167.257 130.827 164.828C130.827 160.956 127.634 157.439 126.599 153.815C125.666 150.548 121.035 144.502 122.027 141.032C122.318 140.014 127.504 137.608 128.566 137.001C130.146 136.098 130.927 134.296 132.597 133.461" stroke="#101828" stroke-width="3" stroke-linecap="round"/>
<path d="M114.013 143.2C109.353 141.647 105.2 139.378 100.738 137.891" stroke="#101828" stroke-width="3" stroke-linecap="round"/>
<path d="M98.0835 138.773C89.3212 139.489 83.8879 140.293 76.0084 142.756C74.405 143.257 73.2115 143.985 71.5344 144.083C69.1914 144.221 73.9696 147.997 74.8776 148.311C79.4816 149.905 88.1283 149.067 92.4787 148.016C97.8438 146.721 102.329 147.153 106.933 144.083" stroke="#101828" stroke-width="3" stroke-linecap="round"/>
<path d="M82.1562 142.312C84.6499 143.272 86.0657 145.926 88.5477 146.934C90.7032 147.81 93.109 147.622 95.3816 147.622C98.638 147.622 99.4612 145.756 100.741 143.197" stroke="#101828" stroke-width="3" stroke-linecap="round"/>
<path d="M125.52 144.966C133.06 147.48 141.049 146.736 148.922 146.736C151.085 146.736 162.297 148.236 163.377 145.458C164.967 141.368 146.497 135.3 143.612 133.954C139.364 131.971 132.094 133.664 128.174 135.232" stroke="#101828" stroke-width="3" stroke-linecap="round"/>
<path d="M134.367 137.891C137.924 138.568 141.691 139.538 144.987 137.891" stroke="#101828" stroke-width="3" stroke-linecap="round"/>
<path d="M64.457 133.461C77.247 133.461 89.8845 135.231 102.511 135.231" stroke="#101828" stroke-width="3" stroke-linecap="round"/>
<path d="M120.207 131.694C127.293 131.221 134.354 130.287 141.446 129.924C142.484 129.87 142.688 130.032 143.413 130.612C144.35 131.362 146.416 132.579 147.641 132.579" stroke="#101828" stroke-width="3" stroke-linecap="round"/>
<path d="M89.2334 200.714C92.8613 200.714 98.9438 202.006 102.066 200.272C105.198 198.532 104.325 195.062 107.13 199.829C108.454 202.081 111.24 198.189 112.046 197.175C113.812 194.95 115.668 196.217 117.946 197.666C121.861 200.158 127.958 198.945 132.597 198.945C135.268 198.945 137.518 199.554 140.119 199.78C146.966 200.376 140.146 202.023 136.825 202.288C127.98 202.992 118.916 202.484 110.03 202.484C101.516 202.484 93.1974 201.599 84.8086 201.599" stroke="#101828" stroke-width="3" stroke-linecap="round"/>
<path d="M91.0039 205.144C92.106 210.792 92.7738 215.925 92.7738 221.614C92.7738 224.625 91.9434 229.286 93.2163 232.086C94.8638 235.71 94.0799 240.418 96.7562 243.689C99.4088 246.931 98.7537 252.778 103.59 254.505C109.241 256.524 115.384 256.472 121.29 256.472C124.129 256.472 127.62 257.08 130.139 255.587C147.501 245.299 143.217 218.138 143.217 200.719" stroke="#101828" stroke-width="3" stroke-linecap="round"/>
<path d="M108.703 206.031C108.703 215.108 107.384 224.079 105.605 232.974C104.47 238.65 102.508 244.462 102.508 250.28" stroke="#101828" stroke-width="3" stroke-linecap="round"/>
<path d="M125.52 203.375C125.52 215.256 127.384 229.624 124.832 241.429C124.045 245.066 123.75 251.265 123.75 254.703" stroke="#101828" stroke-width="3" stroke-linecap="round"/>
<path d="M108.703 205.141V207.796" stroke="#101828" stroke-width="3" stroke-linecap="round"/>
<path d="M110.474 192.75C105.059 194.148 84.0757 191.476 80.5816 199.338C77.9562 205.245 83.1723 214.676 79.5 220.184" stroke="#101828" stroke-width="3" stroke-linecap="round"/>
<path d="M109.59 187.449C116.477 187.449 124.288 186.378 131.026 188.334C135.86 189.737 139.476 190.892 144.595 190.989C148.79 191.068 153.848 197.918 155.166 201.608C158.052 209.691 157.378 217.932 157.378 226.388" stroke="#101828" stroke-width="3" stroke-linecap="round"/>
<path d="M48.5273 147.625C48.5273 158.474 48.5273 169.323 48.5273 180.172C48.5273 186.736 52.9195 190.882 54.7221 196.741C56.0253 200.976 57.9203 205.484 60.032 209.18C64.8146 217.549 74.929 219.455 77.7805 229.436C78.3126 231.298 80.7886 235.468 82.1562 237.007C85.1878 240.418 87.0672 241.352 91.8909 242.317" stroke="#101828" stroke-width="3" stroke-linecap="round"/>
<path d="M142.332 240.545C148.219 237.275 155.32 234.43 157.721 227.762C158.566 225.416 157.696 222.803 158.704 220.584C160.046 217.632 160.828 214.049 160.916 210.85C161.021 207.093 163.465 203.756 163.571 199.837C163.701 195.043 166.362 191.552 167.062 187.005C168.185 179.703 168.116 171.016 170.651 164.045C174.131 154.475 170.651 141.934 170.651 132.137C170.651 128.154 170.651 124.172 170.651 120.189C170.651 114.368 167.111 108.906 167.111 103.375" stroke="#101828" stroke-width="3" stroke-linecap="round"/>
<path d="M96.3153 106.031C106.438 107.406 113.534 103.49 114.703 92.8548C115.272 87.6773 116.142 84.6679 110.573 84.7917C100.825 85.0083 91.3654 88.0687 83.7291 94.2314C81.5421 95.9963 72.5413 102.189 79.4517 104.212C91.0583 107.609 115.761 106.606 114.851 89.7574C114.573 84.6255 111.67 79.3 106.099 78.7936C100.656 78.2987 97.227 82.597 94.9387 87.0533C91.6967 93.3667 121.993 92.486 126.896 87.4466C131.116 83.109 123.55 75.8814 120.209 73.8771C114.239 70.295 102.03 68.6573 95.5778 71.7138C93.5839 72.6583 83.312 83.944 87.7606 86.1683C92.2765 88.4263 97.9171 89.0809 102.412 86.5125C106.831 83.9872 104.984 82.046 101.625 80.3668" stroke="#101828" stroke-width="3" stroke-linecap="round"/>
<path d="M73.3034 104.264C75.0353 100.327 75.6244 94.191 69.3702 94.529C62.7722 94.8857 59.9532 106.177 59.193 111.245C58.3491 116.871 56.2654 125.637 62.6837 128.846C69.3385 132.174 62.6907 115.11 62.2412 114.244C60.3945 110.688 58.2065 108.702 54.2273 108C53.4622 107.865 50.5828 106.94 49.8516 107.509C48.3637 108.666 48.1442 111.453 47.8359 113.113C47.043 117.383 44.2516 120.643 44.0993 125.11C44.0248 127.297 46.455 141.563 47.5409 133.419C47.6928 132.279 47.08 123.082 45.8693 125.503" stroke="#101828" stroke-width="3" stroke-linecap="round"/>
<path d="M39.6752 146.737C32.5069 141.799 28.3159 138.465 28.1706 129.529C28.0612 122.803 27.8894 116.707 26.4498 110.109C25.4524 105.537 28.3892 93.4338 21.435 96.4411C15.4439 99.0318 9.19451 105.674 4.47306 96.9819C0.149001 89.0217 1.31723 75.3271 9.38957 70.1378C11.709 68.6467 15.1722 66.2046 18.0426 66.2046C20.7379 66.2046 20.9513 65.9083 22.5658 63.648C28.8705 54.8214 38.1615 47.0803 47.9841 42.4579C50.7138 41.1733 55.4492 39.0036 58.6037 39.7046C60.9254 40.2205 61.6027 38.8268 63.9627 37.0006C68.3252 33.6248 71.7917 31.7766 76.844 33.4607" stroke="#101828" stroke-width="3" stroke-linecap="round"/>
<path d="M135.253 100.718C143.462 111.273 153.647 122.122 167.8 117.729C169.493 117.204 173.867 113.854 170.16 112.764C169.008 112.425 167.48 113.636 168.784 113.6C173.061 113.481 178.372 110.383 181.862 108.191C190.927 102.499 181.012 90.0615 176.404 85.0347C174.536 82.9967 160.999 70.1874 158.656 77.2174C154.531 89.5915 186.903 94.6199 182.501 75.0542C179.975 63.8301 171.436 62.6646 161.409 62.6646C154.029 62.6646 132.189 61.473 139.285 63.5004C144.21 64.9076 141.262 45.9203 139.973 43.8836C132.534 32.1247 116.779 29.2493 104.033 28.6424C103.58 28.6208 95.2298 28.0238 97.7894 30.314C99.4715 31.8191 101.959 33.3446 104.279 33.4606C108.538 33.6735 113.916 30.451 113.916 25.8892C113.916 16.3056 103.151 16.6461 96.3144 16.6461C92.1943 16.6461 79.5 14.6745 79.5 21.071" stroke="#101828" stroke-width="3" stroke-linecap="round"/>
<path d="M60.9141 68.8556C62.0716 71.9423 77.7825 66.2173 72.7137 59.121C67.6389 52.0163 64.4539 60.6607 64.4539 65.3158" stroke="#101828" stroke-width="3" stroke-linecap="round"/>
<path d="M82.1557 227.271C82.1557 228.65 80.8943 240.818 84.3189 239.07C88.5735 236.9 91.7316 231.026 85.4989 230.811C81.4399 230.671 83.6312 232.188 86.1872 234.744C88.5848 237.141 91.3628 238.836 92.5787 242.119C92.6906 242.421 94.0856 245.138 93.4636 245.216C88.6872 245.813 81.8086 235.561 80.1399 232.286C77.7963 227.685 78.6068 221.254 74.2401 217.979C69.8769 214.706 63.534 214.529 58.7531 211.341C56.3224 209.721 52.6411 196.297 56.4915 196.297" stroke="#101828" stroke-width="3" stroke-linecap="round"/>
<path d="M163.573 226.389C163.573 223.73 165.193 221.018 166.227 218.621C166.849 217.182 172.948 205.133 170.406 207.166C163.899 212.372 160.934 219.043 156.05 225.013C154.617 226.764 148.748 228.063 148.528 229.929C148.359 231.365 147.224 231.68 146.266 232.584C144.298 234.443 147.98 231.415 148.381 230.814C148.851 230.109 149.413 227.855 149.413 227.914C149.413 229.695 149.677 231.728 149.216 233.469C148.665 235.553 146.334 239.773 144.497 240.942C141.873 242.612 144.833 239.247 145.48 238.73C147.861 236.825 149.035 234.234 151.183 232.24C154.123 229.51 155.292 227.605 157.574 224.226C158.935 222.213 158.753 220.612 159.344 218.425C160.136 215.495 162.696 214.124 164.359 211.837C166.142 209.386 167.487 206.025 168.882 203.38C170.491 200.332 177.668 186.197 169.079 191.482C166.844 192.858 169.809 179.902 170.161 178.798C170.879 176.54 171.737 173.977 173.307 172.406" stroke="#101828" stroke-width="3" stroke-linecap="round"/>
<path d="M97.1992 145.854C99.9542 145.854 107.878 142.938 102.411 147.624C101.024 148.813 92.7888 152.963 94.9376 152.934C100.209 152.863 103.627 151.41 108.163 149.394C108.914 149.061 117.302 139.272 111.162 145.658C109.131 147.77 109.143 151.17 107.819 153.819" stroke="#101828" stroke-width="3" stroke-linecap="round"/>
<path d="M125.517 153.817C125.517 156.651 126.402 148.195 126.402 145.36C126.402 141.188 128.456 153.467 129.007 157.602C129.356 160.214 126.741 152.799 125.123 150.719C123.382 148.48 129.98 152.547 130.827 153.817" stroke="#101828" stroke-width="3" stroke-linecap="round"/>
<path d="M110.474 189.219C103.939 189.837 82.1553 188.265 82.1553 200.33C82.1553 205.244 79.6612 209.252 77.7305 213.113" stroke="#101828" stroke-width="3" stroke-linecap="round"/>
<path d="M111.359 193.641C117.776 193.751 123.458 196.296 129.944 196.296C134.71 196.296 139.091 198.065 143.661 198.065C150.75 198.065 155.396 205.395 157.378 211.34" stroke="#101828" stroke-width="3" stroke-linecap="round"/>
<path d="M96.3126 234.354C98.4954 235.839 103.507 238.075 104.327 240.942C104.401 241.203 105.788 242.891 105.457 242.466C103.075 239.404 100.388 233.872 99.9016 229.978C99.6567 228.019 98.9675 224.128 98.9675 224.128C98.9675 224.128 99.4099 226.229 99.6558 227.274C100.31 230.054 99.8884 228.723 99.8525 226.389C99.7924 222.484 99.306 220.435 96.8534 217.982C96.7908 217.919 100.737 222.995 100.737 219.752C100.737 216.948 98.7429 215.18 97.6892 212.721C96.135 209.095 103.689 218.073 105.605 221.522C106.023 222.275 106.047 222.89 106.047 223.734C106.047 225.28 105.857 220.645 105.654 219.113C105.524 218.127 104.201 206.425 103.196 207.51C97.6465 213.503 98.0825 223.651 98.0825 231.257C98.0825 236.458 93.1045 221.952 92.0844 216.851C91.4009 213.434 93.3045 211.692 93.6577 208.69C94.5303 201.272 97.1976 223.345 97.1976 230.814" stroke="#1DBE02" stroke-width="3" stroke-linecap="round"/>
<path d="M129.941 247.622C130.282 237.91 130.183 228.067 130.876 218.369C130.929 217.623 131.545 211.634 132.4 211.634C132.414 211.634 132.821 226.457 133.039 228.202C133.476 231.702 132.22 242.048 133.53 238.773C135.676 233.409 135.251 224.669 135.251 218.812C135.251 214.94 135.251 227.549 135.251 229.136C135.251 232.824 135.251 236.511 135.251 240.199C135.251 241.876 135.251 248.109 135.251 242.362C135.251 235.561 135.251 228.759 135.251 221.958C135.251 217.364 134.928 211.805 136.185 207.405C137.549 202.632 137.49 217.253 137.857 222.204C138.11 225.624 138.695 229.206 138.791 232.578C138.836 234.151 138.791 238.871 138.791 237.298C138.791 229.448 138.791 221.598 138.791 213.748C138.791 206.925 138.852 208.029 138.349 214.879C138.022 219.323 137.906 223.704 137.906 228.153" stroke="#FF0404" stroke-width="3" stroke-linecap="round"/>
<path d="M95.4297 242.313C98.302 232.289 101.624 223.569 101.624 213.306C101.624 211.421 104.155 204.314 104.279 208.684C104.588 219.479 103.394 230.546 103.394 241.035C103.394 241.725 102.475 248.859 101.084 248.704C97.0579 248.257 96.3147 227.867 96.3147 222.844C96.3147 217.389 95.4297 212.365 95.4297 206.914" stroke="#1DBE02" stroke-width="3" stroke-linecap="round"/>
<path d="M52.8555 139.839C53.7297 145.194 54.8675 150.517 55.6745 155.763C56.8385 163.329 61.1127 164.541 67.2555 167.954C71.6092 170.372 78.0358 172.754 83.0269 172.754C89.6302 172.754 95.8166 173.678 100.855 168.639C104.772 164.723 109.004 159.219 111.522 153.554C112.263 151.886 112.661 139 111.065 138.544C105.133 136.849 97.9473 139.498 91.865 138.392C82.4058 136.672 73.6072 135.725 63.8269 135.725C46.8879 135.725 97.6308 132.982 114.57 132.982C122.644 132.982 129.982 131.611 137.884 131.611C144.505 131.611 152.411 129.204 158.608 130.925C165.473 132.832 175.112 131.498 177.351 138.773C179.186 144.737 176.284 150.673 176.284 156.297C176.284 165.975 167.566 178.446 157.084 171.458C149.808 166.608 142.266 163.002 135.141 157.973C129.759 154.173 126.498 149.503 122.798 143.954" stroke="#101828" stroke-width="3" stroke-linecap="round"/>
<path d="M69.3125 153.551C71.8361 153.371 93.669 147.789 92.3983 143.342C91.828 141.346 70.0484 149.533 73.7316 149.132C90.3277 147.328 139.857 140.482 123.56 144.104C116.09 145.764 109.191 149.281 102.151 152.18C96.4863 154.512 90.1487 155.259 85.0078 158.732C79.4747 162.471 99.9306 155.009 102.227 154.161C109.785 151.367 97.1112 154.332 94.7602 155.608C92.3849 156.898 89.6667 158.092 87.4459 159.647C85.0048 161.355 93.2653 158.137 95.903 156.751C102.543 153.263 106.154 147.263 96.7411 152.18C91.2871 155.029 88.322 160.277 83.0268 163.151C76.0861 166.919 87.3908 165.894 90.2649 165.894C91.7571 165.894 100.955 163.44 99.7887 163.227C94.5162 162.269 87.1244 163.848 82.2649 165.894C78.1591 167.623 82.3658 154.798 82.7221 152.027C83.5672 145.454 82.0034 148.626 77.9221 150.732C72.6175 153.47 66.2932 154.751 60.6268 156.37C58.3505 157.021 65.8389 156.768 67.6363 155.227C70.8648 152.46 69.5675 152.267 65.1982 152.18C58.1946 152.04 57.6141 149.305 60.1697 143.342C60.872 141.703 55.8584 144.453 55.2935 145.018C55.2174 145.094 63.8218 147.264 65.9601 146.389C67.7437 145.66 68.6826 141.753 71.9792 140.599C79.1357 138.094 72.654 143.238 69.9982 144.713C68.7724 145.394 60.8733 149.988 63.0649 152.18C65.0826 154.198 72.0554 154.814 72.0554 157.97C72.0554 162.286 58.7494 167.113 68.8554 167.113C83.56 167.113 90.2991 160.708 102.227 153.551" stroke="#101828" stroke-width="3" stroke-linecap="round"/>
<path d="M125.54 145.325C132.609 145.325 153.638 142.582 146.569 142.582C142.132 142.582 137.095 144.163 132.702 144.639C129.248 145.014 116.318 144.186 113.502 147.001C113.156 147.347 122.043 147.058 123.254 146.544C126.337 145.236 128.645 142.939 132.093 142.582C135.668 142.212 140.555 140.064 143.293 137.782C144.132 137.083 141.222 138.482 140.169 138.773C134.149 140.433 126.563 142.101 120.283 141.135C116.734 140.588 127.224 139.285 130.721 138.468C133.279 137.87 137.938 133.575 138.264 136.182C139.079 142.702 122.466 147.793 137.121 146.62C146.808 145.845 155.114 139.424 163.331 134.963C165.465 133.804 155.969 137.904 154.34 138.468C147.037 140.996 145.344 145.916 139.559 150.201C133.676 154.559 150.797 151.491 153.426 151.116C153.972 151.037 162.859 147.963 162.95 148.144C162.967 148.178 144.295 156.06 141.997 157.592C136.007 161.585 150.813 158.519 153.578 157.668C167.024 153.531 150.171 162.775 150.683 165.592C150.973 167.186 171.071 157.54 163.178 165.896C156.88 172.565 163.937 170.389 169.35 167.954C181.199 162.621 163.555 165.983 164.702 162.925C165.092 161.884 181.007 147.001 174.912 147.001C170.299 147.001 157.042 150.963 161.654 150.963C162.947 150.963 171.239 146.38 170.188 145.63C168.218 144.223 163.088 146.805 161.502 145.02C160.713 144.132 167.198 138.446 167.75 136.792C170.059 129.863 158.218 143.961 157.083 146.392C155.462 149.865 153.52 152.948 154.416 156.982C156.774 167.59 168.48 159.003 169.273 152.258C170.557 141.345 159.651 150.054 153.807 152.868C140.447 159.3 159.153 155.6 161.35 157.211C162.887 158.338 152.853 167.193 154.645 167.268C158.047 167.41 167.468 162.932 164.093 163.382C157.812 164.22 146.245 170.83 158.988 166.582C167.497 163.746 162.293 164.16 157.083 165.896" stroke="#101828" stroke-width="3" stroke-linecap="round"/>
</svg>
