<svg xmlns="http://www.w3.org/2000/svg" width="212" height="265" fill="none" stroke="#101828" stroke-width="3" stroke-linecap="round" xmlns:v="https://vecta.io/nano"><path d="M173.716 114.954c12.124-1.102 30.608-.023 35.545-14.674 3.88-11.515-10.417-26.341-19.077-31.36-5.127-2.972-10.713-4.065-16.576-3.804-1.195.053-5.051 1.319-6.088.489-2.215-1.773-3.772-8.791-5.163-11.25-2.828-4.999-5.823-11.149-10.163-15.055-5.594-5.035-21.414-4.885-21.414 5.218 0 7.036 18.721 18.508 22.175 8.913 3.379-9.387-3.405-41.669-18.533-37.664-3.865 1.023-11.224 2.294-12.99 6.468-3.445 8.143.145 16.073 5.109 22.609 5.389 7.096 8.321.767 8.805-6.087.936-13.281-1.858-29.697-15.925-35.055-9.128-3.478-19.377-1.268-27.664 3.424-8.107 4.591-8.044 12.342-8.044 20.707 0 5.937-1.446 13.881.543 19.566 2.413 6.893 14.875 8.204 20.762 8.642 1.659.123 14.112 1.883 15.435-.217 1.635-2.598.31-9.177 0-11.848-.97-8.339-4.215-16.036-7.337-23.751-.611-1.509-5.344-16.809-8.968-13.587-4.31 3.831-11.536 11.639-12.826 17.337-1.831 8.089-4.979 11.855-10.707 17.392-3.025 2.925-9.013 8.332-10.489 12.392-1.673 4.601-10.694-1.669-13.153-4.348-4.023-4.383-7.091-13.017-9.239-18.588-1.241-3.218-2.434-8.527.489-11.196C58.95 9.833 79.564 14.884 92.3 13.975c9.94-.71 18.66-5.199 28.588-2.717m13.695 127.177c0 5.355 4.305 4.717 8.804 2.717 1.079-.479 2.858-1.118 3.696-1.956 2.352-2.352-4.284 2.125-5 2.554-3.016 1.81-4.952 2.06-7.881-.869-3.914-3.914 1.635-5.381 4.294-5.381m-45.981 6.853c2.052 0 5.761.293 5.761-2.827 0-.154-4.025 1.39-4.783 2.337-1.136 1.421 7.062-.324 5.435.49-2.156 1.077-8.37 3.938-8.37 0m23.455-1.812c0 8.723-.378 14.64-6.244 21.239-2.216 2.493-4.639 3.618-5.31 6.637-.606 2.726-1.721 4.771-1.721 7.719 0 4.361.342 4.402 4.228 2.458 3.499-1.749 4.203 5.23 5.949 6.589 4.694 3.65 10.913-10.223 11.948-.394.231 2.202 5.848.069 6.883-1.081 1.577-1.753.196-9.702.196-12.144 0-2.402.885-4.307.885-6.736 0-3.872-3.193-7.389-4.228-11.013-.933-3.267-5.564-9.313-4.572-12.783.291-1.018 5.477-3.424 6.539-4.031 1.58-.903 2.361-2.705 4.031-3.54"/><path d="M114.013 143.2c-4.66-1.553-8.813-3.822-13.275-5.309m-2.654.882c-8.762.716-14.196 1.52-22.075 3.983-1.603.501-2.797 1.229-4.474 1.327-2.343.138 2.435 3.914 3.343 4.228 4.604 1.594 13.251.756 17.601-.295 5.365-1.295 9.85-.863 14.454-3.933"/><path d="M82.156 142.312c2.494.96 3.91 3.614 6.392 4.622 2.155.876 4.561.688 6.834.688 3.256 0 4.08-1.866 5.359-4.425m24.779 1.769c7.54 2.514 15.529 1.77 23.402 1.77 2.163 0 13.375 1.5 14.455-1.278 1.59-4.09-16.88-10.158-19.765-11.504-4.248-1.983-11.518-.29-15.438 1.278"/><path d="M134.367 137.891c3.557.677 7.324 1.647 10.62 0m-80.53-4.43c12.79 0 25.428 1.77 38.054 1.77m17.696-3.537c7.086-.473 14.147-1.407 21.239-1.77 1.038-.054 1.242.108 1.967.688.937.75 3.003 1.967 4.228 1.967m-58.408 68.135c3.628 0 9.71 1.292 12.833-.442 3.132-1.74 2.259-5.21 5.064-.443 1.324 2.252 4.11-1.64 4.916-2.654 1.766-2.225 3.622-.958 5.9.491 3.915 2.492 10.012 1.279 14.651 1.279 2.671 0 4.921.609 7.522.835 6.847.596.027 2.243-3.294 2.508-8.845.704-17.909.196-26.795.196-8.514 0-16.833-.885-25.221-.885m23.894 3.542v2.655m1.771-15.046c-5.415 1.398-26.398-1.274-29.892 6.588-2.625 5.907 2.591 15.338-1.082 20.846m30.09-32.735c6.887 0 14.698-1.071 21.436.885 4.834 1.403 8.45 2.558 13.569 2.655 4.195.079 9.253 6.929 10.571 10.619 2.886 8.083 2.212 16.324 2.212 24.78M48.527 147.625v32.547c0 6.564 4.392 10.71 6.195 16.569 1.303 4.235 3.198 8.743 5.31 12.439 4.783 8.369 14.897 10.275 17.749 20.256.532 1.862 3.008 6.032 4.376 7.571 3.032 3.411 4.911 4.345 9.735 5.31m50.44-1.772c5.887-3.27 12.988-6.115 15.389-12.783.845-2.346-.025-4.959.983-7.178 1.342-2.952 2.124-6.535 2.212-9.734.105-3.757 2.549-7.094 2.655-11.013.13-4.794 2.791-8.285 3.491-12.832 1.123-7.302 1.054-15.989 3.589-22.96 3.48-9.57 0-22.111 0-31.908v-11.948c0-5.821-3.54-11.283-3.54-16.814m-70.796 2.656c10.123 1.375 17.219-2.541 18.388-13.176.569-5.177 1.439-8.187-4.13-8.063-9.748.217-19.208 3.277-26.844 9.44-2.187 1.765-11.188 7.958-4.277 9.981 11.607 3.397 36.309 2.394 35.399-14.455-.278-5.132-3.181-10.457-8.752-10.964-5.443-.495-8.872 3.803-11.16 8.26-3.242 6.313 27.054 5.433 31.957.393 4.22-4.338-3.346-11.565-6.687-13.57-5.97-3.582-18.179-5.22-24.631-2.163-1.994.944-12.266 12.23-7.817 14.454 4.516 2.258 10.157 2.913 14.651.344 4.419-2.525 2.572-4.466-.787-6.146m-28.322 23.898c1.732-3.937 2.321-10.073-3.933-9.735-6.598.357-9.417 11.648-10.177 16.716-.844 5.626-2.928 14.392 3.491 17.601 6.655 3.328.007-13.736-.443-14.602-1.847-3.556-4.035-5.542-8.014-6.244-.765-.135-3.645-1.06-4.376-.491-1.488 1.157-1.707 3.944-2.016 5.604-.793 4.27-3.584 7.53-3.737 11.997-.075 2.187 2.356 16.453 3.442 8.309.152-1.14-.461-10.337-1.672-7.916m-6.193 21.234c-7.168-4.938-11.359-8.272-11.505-17.208-.109-6.726-.281-12.822-1.721-19.42-.997-4.572 1.939-16.675-5.015-13.668-5.991 2.591-12.24 9.233-16.962.541-4.324-7.96-3.156-21.655 4.917-26.844 2.319-1.491 5.783-3.933 8.653-3.933 2.695 0 2.909-.296 4.523-2.557 6.305-8.827 15.596-16.568 25.418-21.19 2.73-1.285 7.465-3.454 10.62-2.753 2.322.516 2.999-.878 5.359-2.704 4.362-3.376 7.829-5.224 12.881-3.54"/><path d="M135.253 100.718c8.209 10.555 18.394 21.404 32.547 17.011 1.693-.525 6.067-3.875 2.36-4.965-1.152-.339-2.68.872-1.376.836 4.277-.119 9.588-3.217 13.078-5.409 9.065-5.692-.85-18.13-5.458-23.156-1.868-2.038-15.405-14.847-17.748-7.817-4.125 12.374 28.247 17.403 23.845-2.163-2.526-11.224-11.065-12.39-21.092-12.39-7.38 0-29.22-1.192-22.124.836 4.925 1.407 1.977-17.58.688-19.617-7.439-11.759-23.194-14.634-35.94-15.241-.453-.022-8.803-.619-6.244 1.672 1.682 1.505 4.17 3.031 6.49 3.147 4.259.213 9.637-3.01 9.637-7.571 0-9.584-10.765-9.243-17.602-9.243-4.12 0-16.814-1.972-16.814 4.425M60.914 68.856c1.157 3.087 16.868-2.638 11.8-9.735-5.075-7.105-8.26 1.54-8.26 6.195m17.702 161.955c0 1.379-1.261 13.547 2.163 11.799 4.255-2.17 7.413-8.044 1.18-8.259-4.059-.14-1.868 1.377.688 3.933 2.398 2.397 5.176 4.092 6.391 7.375.112.302 1.507 3.019.885 3.097-4.776.597-11.655-9.655-13.324-12.93-2.344-4.601-1.533-11.032-5.9-14.307s-10.706-3.45-15.487-6.638c-2.431-1.62-6.112-15.044-2.262-15.044m107.083 30.092c0-2.659 1.62-5.371 2.654-7.768.622-1.439 6.721-13.488 4.179-11.455-6.507 5.206-9.472 11.877-14.356 17.847-1.433 1.751-7.302 3.05-7.522 4.916-.169 1.436-1.304 1.751-2.262 2.655-1.968 1.859 1.714-1.169 2.115-1.77.47-.705 1.032-2.959 1.032-2.9 0 1.781.264 3.814-.197 5.555-.551 2.084-2.882 6.304-4.719 7.473-2.624 1.67.336-1.695.983-2.212 2.381-1.905 3.555-4.496 5.703-6.49 2.94-2.73 4.109-4.635 6.391-8.014 1.361-2.013 1.179-3.614 1.77-5.801.792-2.93 3.352-4.301 5.015-6.588 1.783-2.451 3.128-5.812 4.523-8.457 1.609-3.048 8.786-17.183.197-11.898-2.235 1.376.73-11.58 1.082-12.684.718-2.258 1.576-4.821 3.146-6.392m-76.108-26.552c2.755 0 10.679-2.916 5.212 1.77-1.387 1.189-9.622 5.339-7.473 5.31 5.271-.071 8.689-1.524 13.225-3.54.751-.333 9.139-10.122 2.999-3.736-2.031 2.112-2.019 5.512-3.343 8.161m17.698-.002c0 2.834.885-5.622.885-8.457 0-4.172 2.054 8.107 2.605 12.242.349 2.612-2.266-4.803-3.884-6.883-1.741-2.239 4.857 1.828 5.704 3.098m-20.353 35.402c-6.535.618-28.319-.954-28.319 11.111 0 4.914-2.494 8.922-4.425 12.783m33.629-19.472c6.417.11 12.099 2.655 18.585 2.655 4.766 0 9.147 1.769 13.717 1.769 7.089 0 11.735 7.33 13.717 13.275"/><path d="M78.77 208.686c8.2 8.4 16.141 18.173 23.33 27.416 2.98 3.831 10.047 9.947 15.008 10.03 4.15.069 13.101 1.588 17.163-.669 3.423-1.902 6.633-3.008 8.693-6.612.824-1.443 2.877-1.744 3.714-3.418.825-1.648-.154-3.665.595-5.349 3.011-6.775 2.377-15.308 2.377-22.735 0-6.647-2.089-2.881-3.715 1.634-1.949 5.417-6.467 8.922-9.584 13.597-4.046 6.068-9.188 8.703-15.454 12.184-8.32 4.623-15.619-4.905-22.363-7.652-8.921-3.635-9.3-15.987-15.751-22.438m5.346-1.333c0 6.87 15.779 7.52 16.048 2.675.141-2.527 1.264 2.674 5.35 2.674 3.298 0 4.796.782 5.943-2.526 1.182-3.405.9-7.634 2.749-3.566 2.361 5.193-.977 6.092 6.761 6.092 1.417 0 4.484.747 4.607-1.337.046-.781 0-3.205 0-3.195 0 10.441 16.048 10.32 16.048.52"/><path d="M92.141 223.401c1.127 0 6.35-2.412 6.39-2.377 1.142 1.027 2.81 3.515 2.972 5.052.08.758-.527 3.864.743 3.864 3.541 0 5.845-3.864 9.882-3.864 4.236 0 2.749 4.723 2.749 8.024m1.338-5.35h8.024m-36.11 9.363c6.001 3.858 10.981 7.315 16.345 12.037.845.743 12.584 9.458 8.247 3.194-1.923-2.779-4.68-5.147-6.463-7.949-1.254-1.97-2.081-6.687-2.081-6.687s1.72 14.566 7.43 16.642c1.282.467 4.997.663 5.944-.52 2.384-2.98-3.115-1.759-5.35-2.303-8.602-2.092-.677.387 3.864 2.378.777.34 4.071 2.525 4.16.297.057-1.411-1.638-5.397-1.114-4.087.833 2.083 4.606 2.661 4.606 4.904 0 .234-8.102-3.581-8.544-3.863-2.069-1.322-5.222-3.333-5.646-6.019-.302-1.912-5.457-10.169-7.504-10.624-2.797-.621-7.606-.621-10.402 0-2.921.649.114 10.102 1.56 11.367 4.744 4.151 13.77 10.454 20.209 8.99 1.599-.363 5.013-4.651 6.241-2.897 1.468 2.097 2.598 5.592 4.309 1.486 4.941-11.859 4.304 3.675 5.127 3.492 3.596-.799 8.464-6.705 10.922-9.436 6.899-7.666-.519-4.492-5.721-.446-2.63 2.045-6.917 3.702-7.356 7.43-.201 1.712-3.522 2.012 1.338 1.04 3.43-.686 11.836-3.6 13.373-7.058.766-1.722 2.192-3.509 2.601-5.35 1.103-4.967-11.924.058-13.3.669"/><path d="M120.226 246.131c6.766-2.3 16.852-7.022 21.398-12.705 1.259-1.574.87-2.042 1.412-3.937.492-1.724.962 1.789.223 3.269-5.774 11.548-18.423 10.699-29.719 10.699-3.101 0-4.46 6.579-1.932 8.024 5.527 3.158 7.282-.331 11.888-2.378 3.644-1.619 7.85-1.108 10.104-5.052 2.169-3.796 7.122-7.572 10.699-9.956m-80.24-38.784c3.694-6.977 6.974-9.107 13.374-13.373m61.516-6.68c10.106.361 10.997 5.498 18.723 9.361"/><path d="M125.215 229.702c0-3.092 6.485-7.639 8.244-4.122m-43.283-9.276c7.078 0 9.647-6.179 16.488-7.156 5.542-.792 3.415 6.178 4.179 9.618 1.025 4.612 7.613-5.043 8.187-5.553 1.325-1.178 2.618-1.031 4.351-1.031 1.794 0-4.21 0-5.267 0-1.515 0-4.117-.095-4.237 2.061-.717 12.91-.226-4.169 1.088-3.95 2.665.444 3.008 2.92 6.355 2.92 1.981 0 6.355-.21 7.958-1.546 3.832-3.194 7.27 10.806 7.27 6.698v-5.553c0-1.045 2.184 2.798 1.145 2.92-.867.102-2.686 1.572-3.32.859-1.27-1.429-2.325-2.646-4.008-3.607-1.593-.911-4.872-3.148-6.755-2.805-2.073.377-5.805.313-7.672 1.202-3.959 1.886-5.802 3.893-10.247 3.893-3.3 0-3.526-3.42-5.782-4.065-1.688-.482-4.086-.057-5.84-.057-1.624 0-6.854.028-5.954 1.603 1.555 2.72 1.679 3.562 3.893 1.259 4.813-5.006 7.616-.897 13.568-1.889 2.174-.362 7.638 1.002 9.389-.458 2.687-2.239 20.106-1.409 21.583 1.546m-64.919 26.795c-4.231 4.231-12.759 10.06-15.457 15.457m22.669-4.129c-1.727 2.198-2.804 4.766-4.122 7.213m10.304-4.119c1.311 1.966 2.061 5.807 2.061 8.244m-10.303-80.377c7.462-2.436 13.999-4.724 19.579-10.305"/></svg>