<svg width="212" height="265" viewBox="0 0 212 265" fill="none" xmlns="http://www.w3.org/2000/svg">
<path d="M173.716 114.954C185.84 113.852 204.324 114.931 209.261 100.28C213.141 88.7653 198.844 73.939 190.184 68.9201C185.057 65.9485 179.471 64.8551 173.608 65.1157C172.413 65.1688 168.557 66.4342 167.52 65.6048C165.305 63.8321 163.748 56.8133 162.357 54.3545C159.529 49.3552 156.534 43.2056 152.194 39.2997C146.6 34.2652 130.78 34.4142 130.78 44.5172C130.78 51.5535 149.501 63.0253 152.955 53.4305C156.334 44.0433 149.55 11.7617 134.422 15.7664C130.557 16.7894 123.198 18.0608 121.432 22.234C117.987 30.3773 121.577 38.307 126.541 44.8433C131.93 51.9392 134.862 45.6108 135.346 38.7562C136.282 25.4755 133.488 9.05947 119.421 3.70086C110.293 0.223325 100.044 2.43269 91.7574 7.12488C83.6505 11.7155 83.7137 19.4671 83.7137 27.832C83.7137 33.7691 82.2675 41.7129 84.2572 47.3978C86.6698 54.2911 99.1321 55.6018 105.019 56.0393C106.678 56.1627 119.131 57.9222 120.454 55.8219C122.089 53.2241 120.764 46.6451 120.454 43.9738C119.484 35.635 116.239 27.9375 113.117 20.2231C112.506 18.7139 107.773 3.41426 104.149 6.63573C99.8386 10.4672 92.6128 18.2749 91.3226 23.9732C89.4911 32.0622 86.3431 35.8286 80.6157 41.365C77.5903 44.2896 71.6026 49.6968 70.1263 53.7566C68.4534 58.3572 59.4327 52.0879 56.9738 49.4087C52.9509 45.0256 49.8829 36.3914 47.7344 30.8212C46.493 27.6029 45.3 22.2946 48.2235 19.6252C58.9501 9.83142 79.5644 14.8826 92.3009 13.9729C102.241 13.2629 110.961 8.77347 120.889 11.2554" stroke="#101828" stroke-width="3" stroke-linecap="round"/>
<path d="M134.583 138.435C134.583 143.79 138.888 143.152 143.387 141.152C144.466 140.673 146.245 140.034 147.083 139.196C149.435 136.844 142.799 141.321 142.083 141.75C139.067 143.56 137.131 143.81 134.202 140.881C130.288 136.967 135.837 135.5 138.496 135.5" stroke="#101828" stroke-width="3" stroke-linecap="round"/>
<path d="M92.5152 142.353C94.5671 142.353 98.2762 142.646 98.2762 139.526C98.2762 139.372 94.2514 140.916 93.4935 141.863C92.3572 143.284 100.555 141.539 98.9284 142.353C96.7725 143.43 90.5586 146.291 90.5586 142.353" stroke="#101828" stroke-width="3" stroke-linecap="round"/>
<path d="M114.013 140.541C114.013 149.264 113.635 155.181 107.769 161.78C105.553 164.273 103.13 165.398 102.459 168.417C101.853 171.143 100.738 173.188 100.738 176.136C100.738 180.497 101.08 180.538 104.966 178.594C108.465 176.845 109.169 183.824 110.915 185.183C115.609 188.833 121.828 174.96 122.863 184.789C123.094 186.991 128.711 184.858 129.746 183.708C131.323 181.955 129.942 174.006 129.942 171.564C129.942 169.162 130.827 167.257 130.827 164.828C130.827 160.956 127.634 157.439 126.599 153.815C125.666 150.548 121.035 144.502 122.027 141.032C122.318 140.014 127.504 137.608 128.566 137.001C130.146 136.098 130.927 134.296 132.597 133.461" stroke="#101828" stroke-width="3" stroke-linecap="round"/>
<path d="M114.013 143.2C109.353 141.647 105.2 139.378 100.738 137.891" stroke="#101828" stroke-width="3" stroke-linecap="round"/>
<path d="M98.0835 138.773C89.3212 139.489 83.8879 140.293 76.0084 142.756C74.405 143.257 73.2115 143.985 71.5344 144.083C69.1914 144.221 73.9696 147.997 74.8776 148.311C79.4816 149.905 88.1283 149.067 92.4787 148.016C97.8438 146.721 102.329 147.153 106.933 144.083" stroke="#101828" stroke-width="3" stroke-linecap="round"/>
<path d="M82.1562 142.312C84.6499 143.272 86.0657 145.926 88.5477 146.934C90.7032 147.81 93.109 147.622 95.3816 147.622C98.638 147.622 99.4612 145.756 100.741 143.197" stroke="#101828" stroke-width="3" stroke-linecap="round"/>
<path d="M125.52 144.966C133.06 147.48 141.049 146.736 148.922 146.736C151.085 146.736 162.297 148.236 163.377 145.458C164.967 141.368 146.497 135.3 143.612 133.954C139.364 131.971 132.094 133.664 128.174 135.232" stroke="#101828" stroke-width="3" stroke-linecap="round"/>
<path d="M134.367 137.891C137.924 138.568 141.691 139.538 144.987 137.891" stroke="#101828" stroke-width="3" stroke-linecap="round"/>
<path d="M64.457 133.461C77.247 133.461 89.8845 135.231 102.511 135.231" stroke="#101828" stroke-width="3" stroke-linecap="round"/>
<path d="M120.207 131.694C127.293 131.221 134.354 130.287 141.446 129.924C142.484 129.87 142.688 130.032 143.413 130.612C144.35 131.362 146.416 132.579 147.641 132.579" stroke="#101828" stroke-width="3" stroke-linecap="round"/>
<path d="M89.2334 200.714C92.8613 200.714 98.9438 202.006 102.066 200.272C105.198 198.532 104.325 195.062 107.13 199.829C108.454 202.081 111.24 198.189 112.046 197.175C113.812 194.95 115.668 196.217 117.946 197.666C121.861 200.158 127.958 198.945 132.597 198.945C135.268 198.945 137.518 199.554 140.119 199.78C146.966 200.376 140.146 202.023 136.825 202.288C127.98 202.992 118.916 202.484 110.03 202.484C101.516 202.484 93.1974 201.599 84.8086 201.599" stroke="#101828" stroke-width="3" stroke-linecap="round"/>
<path d="M108.703 205.141V207.796" stroke="#101828" stroke-width="3" stroke-linecap="round"/>
<path d="M110.474 192.75C105.059 194.148 84.0757 191.476 80.5816 199.338C77.9562 205.245 83.1723 214.676 79.5 220.184" stroke="#101828" stroke-width="3" stroke-linecap="round"/>
<path d="M109.59 187.449C116.477 187.449 124.288 186.378 131.026 188.334C135.86 189.737 139.476 190.892 144.595 190.989C148.79 191.068 153.848 197.918 155.166 201.608C158.052 209.691 157.378 217.932 157.378 226.388" stroke="#101828" stroke-width="3" stroke-linecap="round"/>
<path d="M48.5273 147.625C48.5273 158.474 48.5273 169.323 48.5273 180.172C48.5273 186.736 52.9195 190.882 54.7221 196.741C56.0253 200.976 57.9203 205.484 60.032 209.18C64.8146 217.549 74.929 219.455 77.7805 229.436C78.3126 231.298 80.7886 235.468 82.1562 237.007C85.1878 240.418 87.0672 241.352 91.8909 242.317" stroke="#101828" stroke-width="3" stroke-linecap="round"/>
<path d="M142.332 240.545C148.219 237.275 155.32 234.43 157.721 227.762C158.566 225.416 157.696 222.803 158.704 220.584C160.046 217.632 160.828 214.049 160.916 210.85C161.021 207.093 163.465 203.756 163.571 199.837C163.701 195.043 166.362 191.552 167.062 187.005C168.185 179.703 168.116 171.016 170.651 164.045C174.131 154.475 170.651 141.934 170.651 132.137C170.651 128.154 170.651 124.172 170.651 120.189C170.651 114.368 167.111 108.906 167.111 103.375" stroke="#101828" stroke-width="3" stroke-linecap="round"/>
<path d="M96.3153 106.031C106.438 107.406 113.534 103.49 114.703 92.8548C115.272 87.6773 116.142 84.6679 110.573 84.7917C100.825 85.0083 91.3654 88.0687 83.7291 94.2314C81.5421 95.9963 72.5413 102.189 79.4517 104.212C91.0583 107.609 115.761 106.606 114.851 89.7574C114.573 84.6255 111.67 79.3 106.099 78.7936C100.656 78.2987 97.227 82.597 94.9387 87.0533C91.6967 93.3667 121.993 92.486 126.896 87.4466C131.116 83.109 123.55 75.8814 120.209 73.8771C114.239 70.295 102.03 68.6573 95.5778 71.7138C93.5839 72.6583 83.312 83.944 87.7606 86.1683C92.2765 88.4263 97.9171 89.0809 102.412 86.5125C106.831 83.9872 104.984 82.046 101.625 80.3668" stroke="#101828" stroke-width="3" stroke-linecap="round"/>
<path d="M73.3034 104.264C75.0353 100.327 75.6244 94.191 69.3702 94.529C62.7722 94.8857 59.9532 106.177 59.193 111.245C58.3491 116.871 56.2654 125.637 62.6837 128.846C69.3385 132.174 62.6907 115.11 62.2412 114.244C60.3945 110.688 58.2065 108.702 54.2273 108C53.4622 107.865 50.5828 106.94 49.8516 107.509C48.3637 108.666 48.1442 111.453 47.8359 113.113C47.043 117.383 44.2516 120.643 44.0993 125.11C44.0248 127.297 46.455 141.563 47.5409 133.419C47.6928 132.279 47.08 123.082 45.8693 125.503" stroke="#101828" stroke-width="3" stroke-linecap="round"/>
<path d="M39.6752 146.737C32.5069 141.799 28.3159 138.465 28.1706 129.529C28.0612 122.803 27.8894 116.707 26.4498 110.109C25.4524 105.537 28.3892 93.4338 21.435 96.4411C15.4439 99.0318 9.19451 105.674 4.47306 96.9819C0.149001 89.0217 1.31723 75.3271 9.38957 70.1378C11.709 68.6467 15.1722 66.2046 18.0426 66.2046C20.7379 66.2046 20.9513 65.9083 22.5658 63.648C28.8705 54.8214 38.1615 47.0803 47.9841 42.4579C50.7138 41.1733 55.4492 39.0036 58.6037 39.7046C60.9254 40.2205 61.6027 38.8268 63.9627 37.0006C68.3252 33.6248 71.7917 31.7766 76.844 33.4607" stroke="#101828" stroke-width="3" stroke-linecap="round"/>
<path d="M135.253 100.718C143.462 111.273 153.647 122.122 167.8 117.729C169.493 117.204 173.867 113.854 170.16 112.764C169.008 112.425 167.48 113.636 168.784 113.6C173.061 113.481 178.372 110.383 181.862 108.191C190.927 102.499 181.012 90.0615 176.404 85.0347C174.536 82.9967 160.999 70.1874 158.656 77.2174C154.531 89.5915 186.903 94.6199 182.501 75.0542C179.975 63.8301 171.436 62.6646 161.409 62.6646C154.029 62.6646 132.189 61.473 139.285 63.5004C144.21 64.9076 141.262 45.9203 139.973 43.8836C132.534 32.1247 116.779 29.2493 104.033 28.6424C103.58 28.6208 95.2298 28.0238 97.7894 30.314C99.4715 31.8191 101.959 33.3446 104.279 33.4606C108.538 33.6735 113.916 30.451 113.916 25.8892C113.916 16.3056 103.151 16.6461 96.3144 16.6461C92.1943 16.6461 79.5 14.6745 79.5 21.071" stroke="#101828" stroke-width="3" stroke-linecap="round"/>
<path d="M60.9141 68.8556C62.0716 71.9423 77.7825 66.2173 72.7137 59.121C67.6389 52.0163 64.4539 60.6607 64.4539 65.3158" stroke="#101828" stroke-width="3" stroke-linecap="round"/>
<path d="M82.1557 227.271C82.1557 228.65 80.8943 240.818 84.3189 239.07C88.5735 236.9 91.7316 231.026 85.4989 230.811C81.4399 230.671 83.6312 232.188 86.1872 234.744C88.5848 237.141 91.3628 238.836 92.5787 242.119C92.6906 242.421 94.0856 245.138 93.4636 245.216C88.6872 245.813 81.8086 235.561 80.1399 232.286C77.7963 227.685 78.6068 221.254 74.2401 217.979C69.8769 214.706 63.534 214.529 58.7531 211.341C56.3224 209.721 52.6411 196.297 56.4915 196.297" stroke="#101828" stroke-width="3" stroke-linecap="round"/>
<path d="M163.573 226.389C163.573 223.73 165.193 221.018 166.227 218.621C166.849 217.182 172.948 205.133 170.406 207.166C163.899 212.372 160.934 219.043 156.05 225.013C154.617 226.764 148.748 228.063 148.528 229.929C148.359 231.365 147.224 231.68 146.266 232.584C144.298 234.443 147.98 231.415 148.381 230.814C148.851 230.109 149.413 227.855 149.413 227.914C149.413 229.695 149.677 231.728 149.216 233.469C148.665 235.553 146.334 239.773 144.497 240.942C141.873 242.612 144.833 239.247 145.48 238.73C147.861 236.825 149.035 234.234 151.183 232.24C154.123 229.51 155.292 227.605 157.574 224.226C158.935 222.213 158.753 220.612 159.344 218.425C160.136 215.495 162.696 214.124 164.359 211.837C166.142 209.386 167.487 206.025 168.882 203.38C170.491 200.332 177.668 186.197 169.079 191.482C166.844 192.858 169.809 179.902 170.161 178.798C170.879 176.54 171.737 173.977 173.307 172.406" stroke="#101828" stroke-width="3" stroke-linecap="round"/>
<path d="M97.1992 145.854C99.9542 145.854 107.878 142.938 102.411 147.624C101.024 148.813 92.7888 152.963 94.9376 152.934C100.209 152.863 103.627 151.41 108.163 149.394C108.914 149.061 117.302 139.272 111.162 145.658C109.131 147.77 109.143 151.17 107.819 153.819" stroke="#101828" stroke-width="3" stroke-linecap="round"/>
<path d="M125.517 153.817C125.517 156.651 126.402 148.195 126.402 145.36C126.402 141.188 128.456 153.467 129.007 157.602C129.356 160.214 126.741 152.799 125.123 150.719C123.382 148.48 129.98 152.547 130.827 153.817" stroke="#101828" stroke-width="3" stroke-linecap="round"/>
<path d="M110.474 189.219C103.939 189.837 82.1553 188.265 82.1553 200.33C82.1553 205.244 79.6612 209.252 77.7305 213.113" stroke="#101828" stroke-width="3" stroke-linecap="round"/>
<path d="M111.359 193.641C117.776 193.751 123.458 196.296 129.944 196.296C134.71 196.296 139.091 198.065 143.661 198.065C150.75 198.065 155.396 205.395 157.378 211.34" stroke="#101828" stroke-width="3" stroke-linecap="round"/>
<path d="M78.7695 208.686C86.9693 217.086 94.91 226.859 102.099 236.102C105.079 239.933 112.146 246.049 117.107 246.132C121.257 246.201 130.208 247.72 134.27 245.463C137.693 243.561 140.903 242.455 142.963 238.851C143.787 237.408 145.84 237.107 146.677 235.433C147.502 233.785 146.523 231.768 147.272 230.084C150.283 223.309 149.649 214.776 149.649 207.349C149.649 200.702 147.56 204.468 145.934 208.983C143.985 214.4 139.467 217.905 136.35 222.58C132.304 228.648 127.162 231.283 120.896 234.764C112.576 239.387 105.277 229.859 98.5327 227.112C89.612 223.477 89.2324 211.125 82.7816 204.674" stroke="#101828" stroke-width="3" stroke-linecap="round"/>
<path d="M88.1289 203.341C88.1289 210.211 103.908 210.861 104.177 206.016C104.318 203.489 105.441 208.69 109.527 208.69C112.825 208.69 114.323 209.472 115.47 206.164C116.652 202.759 116.37 198.53 118.219 202.598C120.58 207.791 117.242 208.69 124.98 208.69C126.397 208.69 129.464 209.437 129.587 207.353C129.633 206.572 129.587 204.148 129.587 204.158C129.587 214.599 145.635 214.478 145.635 204.678" stroke="#101828" stroke-width="3" stroke-linecap="round"/>
<path d="M92.1406 223.401C93.2678 223.401 98.4911 220.989 98.5302 221.024C99.672 222.051 101.34 224.539 101.502 226.076C101.582 226.834 100.975 229.94 102.245 229.94C105.786 229.94 108.09 226.076 112.127 226.076C116.363 226.076 114.876 230.799 114.876 234.1" stroke="#101828" stroke-width="3" stroke-linecap="round"/>
<path d="M116.215 228.75H124.239" stroke="#101828" stroke-width="3" stroke-linecap="round"/>
<path d="M88.1289 238.113C94.1304 241.971 99.1095 245.428 104.474 250.15C105.319 250.893 117.058 259.608 112.721 253.344C110.798 250.565 108.041 248.197 106.258 245.395C105.004 243.425 104.177 238.708 104.177 238.708C104.177 238.708 105.897 253.274 111.607 255.35C112.889 255.817 116.604 256.013 117.551 254.83C119.935 251.85 114.436 253.071 112.201 252.527C103.599 250.435 111.524 252.914 116.065 254.905C116.842 255.245 120.136 257.43 120.225 255.202C120.282 253.791 118.587 249.805 119.111 251.115C119.944 253.198 123.717 253.776 123.717 256.019C123.717 256.253 115.615 252.438 115.173 252.156C113.104 250.834 109.951 248.823 109.527 246.137C109.225 244.225 104.07 235.968 102.023 235.513C99.2261 234.892 94.4173 234.892 91.6209 235.513C88.7003 236.162 91.7347 245.615 93.1811 246.88C97.925 251.031 106.951 257.334 113.39 255.87C114.989 255.507 118.403 251.219 119.631 252.973C121.099 255.07 122.229 258.565 123.94 254.459C128.881 242.6 128.244 258.134 129.067 257.951C132.663 257.152 137.531 251.246 139.989 248.515C146.888 240.849 139.47 244.023 134.268 248.069C131.638 250.114 127.351 251.771 126.912 255.499C126.711 257.211 123.39 257.511 128.25 256.539C131.68 255.853 140.086 252.939 141.623 249.481C142.389 247.759 143.815 245.972 144.224 244.131C145.327 239.164 132.3 244.189 130.924 244.8" stroke="#101828" stroke-width="3" stroke-linecap="round"/>
<path d="M120.226 246.131C126.992 243.831 137.078 239.109 141.624 233.426C142.883 231.852 142.494 231.384 143.036 229.489C143.528 227.765 143.998 231.278 143.259 232.758C137.485 244.306 124.836 243.457 113.54 243.457C110.439 243.457 109.08 250.036 111.608 251.481C117.135 254.639 118.89 251.15 123.496 249.103C127.14 247.484 131.346 247.995 133.6 244.051C135.769 240.255 140.722 236.479 144.299 234.095" stroke="#101828" stroke-width="3" stroke-linecap="round"/>
<path d="M64.0586 195.311C67.7521 188.334 71.0321 186.204 77.4321 181.938" stroke="#101828" stroke-width="3" stroke-linecap="round"/>
<path d="M138.949 175.258C149.055 175.619 149.946 180.756 157.672 184.619" stroke="#101828" stroke-width="3" stroke-linecap="round"/>
<path d="M125.215 229.702C125.215 226.61 131.7 222.063 133.459 225.58" stroke="#101828" stroke-width="3" stroke-linecap="round"/>
<path d="M90.176 216.304C97.2539 216.304 99.823 210.125 106.664 209.148C112.206 208.356 110.079 215.326 110.843 218.766C111.868 223.378 118.456 213.723 119.03 213.213C120.355 212.035 121.648 212.182 123.381 212.182C125.175 212.182 119.171 212.182 118.114 212.182C116.599 212.182 113.997 212.087 113.877 214.243C113.16 227.153 113.651 210.074 114.965 210.293C117.63 210.737 117.973 213.213 121.32 213.213C123.301 213.213 127.675 213.003 129.278 211.667C133.11 208.473 136.548 222.473 136.548 218.365C136.548 216.514 136.548 214.663 136.548 212.812C136.548 211.767 138.732 215.61 137.693 215.732C136.826 215.834 135.007 217.304 134.373 216.591C133.103 215.162 132.048 213.945 130.365 212.984C128.772 212.073 125.493 209.836 123.61 210.179C121.537 210.556 117.805 210.492 115.938 211.381C111.979 213.267 110.136 215.274 105.691 215.274C102.391 215.274 102.165 211.854 99.9085 211.209C98.2205 210.727 95.8223 211.152 94.069 211.152C92.4453 211.152 87.2152 211.18 88.115 212.755C89.6695 215.475 89.7937 216.317 92.008 214.014C96.8214 209.008 99.624 213.117 105.576 212.125C107.75 211.763 113.214 213.127 114.965 211.667C117.652 209.428 135.071 210.258 136.548 213.213" stroke="#101828" stroke-width="3" stroke-linecap="round"/>
<path d="M71.6293 240.008C67.3984 244.239 58.8703 250.068 56.1719 255.465" stroke="#101828" stroke-width="3" stroke-linecap="round"/>
<path d="M78.8407 251.336C77.1137 253.534 76.0367 256.102 74.7188 258.549" stroke="#101828" stroke-width="3" stroke-linecap="round"/>
<path d="M85.0234 254.43C86.3341 256.396 87.0844 260.237 87.0844 262.674" stroke="#101828" stroke-width="3" stroke-linecap="round"/>
<path d="M76.7812 182.297C84.2432 179.861 90.7801 177.573 96.3607 171.992" stroke="#101828" stroke-width="3" stroke-linecap="round"/>
</svg>
